<?xml version="1.0" standalone="no"?>
<!DOCTYPE svg PUBLIC "-//W3C//DTD SVG 20010904//EN"
 "http://www.w3.org/TR/2001/REC-SVG-20010904/DTD/svg10.dtd">
<svg version="1.0" xmlns="http://www.w3.org/2000/svg"
 width="370.000000pt" height="320.000000pt" viewBox="0 0 370.000000 320.000000"
 preserveAspectRatio="xMidYMid meet">

<g transform="translate(0.000000,320.000000) scale(0.100000,-0.100000)"
fill="#000000" stroke="none">
<path d="M753 3067 c-4 -7 -8 -55 -8 -107 l0 -95 -115 0 -115 0 -6 79 c-7 77
-28 123 -47 101 -4 -6 -6 -106 -4 -223 l4 -213 27 3 26 3 -4 81 c-2 54 1 84 8
89 22 13 203 25 217 14 12 -9 25 -83 28 -151 2 -35 8 -40 41 -32 27 7 27 7 20
73 -3 36 -10 91 -15 121 -5 30 -12 98 -14 150 -3 52 -5 98 -5 101 -2 13 -31
18 -38 6z"/>
<path d="M1209 3078 c-1 -2 -2 -108 -3 -235 -2 -224 -1 -233 18 -239 22 -7 50
22 38 40 -4 6 -5 100 -4 209 4 201 0 227 -34 227 -8 0 -14 -1 -15 -2z"/>
<path d="M1381 3067 c-11 -14 -17 -439 -6 -457 3 -5 15 -10 26 -10 14 0 19 7
19 28 0 95 9 381 13 402 7 42 -27 66 -52 37z"/>
<path d="M2940 3055 c-8 -10 -10 -29 -6 -58 4 -23 9 -118 12 -212 2 -93 8
-173 13 -178 5 -5 19 -4 31 3 20 11 21 17 16 73 -3 34 -9 130 -12 212 -7 166
-19 202 -54 160z"/>
<path d="M3254 3047 c-2 -7 -1 -53 4 -103 10 -97 8 -108 -14 -96 -18 10 -123
-3 -137 -17 -19 -19 -21 -109 -2 -150 21 -47 50 -63 142 -80 36 -7 45 -5 63
14 20 21 20 27 10 150 -5 70 -10 158 -10 196 0 48 -5 72 -16 83 -19 19 -33 20
-40 3z m2 -290 c16 -33 19 -49 12 -74 -10 -39 -16 -40 -68 -13 -45 23 -60 45
-60 89 0 33 9 39 60 40 31 0 37 -4 56 -42z"/>
<path d="M2302 2968 c-6 -13 -16 -50 -23 -83 -13 -66 -34 -115 -49 -115 -11 0
-42 68 -59 132 -18 64 -71 81 -71 23 0 -13 -4 -27 -10 -30 -5 -3 -10 -13 -10
-22 0 -21 -59 -143 -70 -143 -12 0 -40 130 -40 188 0 35 -5 52 -15 56 -24 9
-47 -23 -42 -58 10 -65 37 -203 49 -255 22 -92 61 -73 113 56 35 87 39 96 52
100 9 3 60 -98 93 -184 7 -18 16 -33 19 -33 22 0 40 31 45 78 6 51 42 184 67
249 10 25 10 34 0 47 -19 22 -36 20 -49 -6z"/>
<path d="M957 2910 c-27 -21 -57 -96 -57 -140 0 -47 54 -115 110 -138 53 -22
93 -19 88 6 -2 9 -17 19 -33 24 -35 9 -85 52 -85 73 0 11 11 15 38 15 41 0
102 32 102 54 0 26 -41 106 -60 116 -30 16 -75 12 -103 -10z m90 -60 c16 -32
3 -46 -49 -55 -36 -7 -38 -6 -38 21 0 60 62 84 87 34z"/>
<path d="M1561 2883 c-37 -32 -50 -191 -18 -234 25 -33 54 -41 94 -24 51 22
72 43 94 93 38 87 14 141 -73 167 -65 19 -71 19 -97 -2z m126 -73 c23 -28 15
-68 -22 -105 -40 -39 -51 -42 -77 -18 -21 19 -26 111 -6 131 16 16 90 10 105
-8z"/>
<path d="M2431 2873 c-37 -32 -50 -191 -18 -234 25 -33 54 -41 94 -24 51 22
72 43 94 93 38 87 14 141 -73 167 -65 19 -71 19 -97 -2z m126 -73 c23 -28 15
-68 -22 -105 -40 -39 -51 -42 -77 -18 -21 19 -26 111 -6 131 16 16 90 10 105
-8z"/>
<path d="M2687 2853 c-12 -11 -7 -46 13 -103 11 -30 19 -72 20 -93 0 -21 5
-47 10 -57 9 -17 14 -18 35 -8 29 13 31 28 11 67 -15 29 -11 70 8 83 6 4 28 8
48 8 29 0 38 5 43 21 10 31 -11 40 -77 36 -42 -2 -58 0 -58 9 0 14 -27 44 -39
44 -4 0 -11 -3 -14 -7z"/>
<path d="M2305 2509 c-38 -11 -105 -79 -140 -144 -45 -83 -42 -81 -147 -73
-51 3 -110 4 -130 1 -27 -4 -46 0 -72 17 -20 12 -36 26 -36 30 0 17 -135 149
-162 159 -36 13 -80 0 -95 -30 -48 -95 -74 -166 -89 -244 -15 -76 -25 -99 -62
-150 -24 -33 -57 -86 -74 -118 -22 -44 -33 -57 -46 -53 -59 17 -89 17 -96 0
-4 -9 1 -28 9 -41 13 -20 22 -23 46 -18 l30 7 -3 -68 -3 -68 -35 -1 c-32 0
-35 -2 -35 -30 0 -28 3 -30 38 -33 33 -3 41 -8 53 -39 14 -31 13 -37 0 -52
-23 -26 -20 -41 13 -52 41 -14 71 -89 36 -89 -19 0 -66 29 -82 51 -7 9 -24 20
-37 23 -22 5 -48 34 -138 150 -12 16 -31 45 -41 64 l-18 34 30 29 c17 16 31
37 32 47 0 9 2 34 5 54 7 55 -16 92 -65 107 -33 10 -41 16 -41 36 0 36 -30
104 -51 115 -10 6 -43 10 -73 10 -54 0 -56 -1 -88 -45 -22 -29 -47 -50 -76
-61 -24 -10 -54 -32 -68 -49 -21 -29 -23 -40 -21 -117 3 -64 8 -91 22 -109 21
-27 101 -89 115 -89 5 0 21 -21 36 -48 15 -26 33 -54 40 -62 7 -8 12 -18 11
-22 -2 -8 75 -116 106 -149 9 -11 17 -22 17 -27 0 -4 11 -19 25 -34 14 -15 25
-30 25 -34 0 -33 293 -241 416 -295 l76 -34 -5 -284 c-5 -283 2 -436 24 -484
6 -14 24 -31 39 -37 42 -17 131 -19 162 -4 35 18 72 68 88 119 31 98 45 110
142 119 l67 6 43 -43 c58 -59 63 -67 67 -107 4 -49 35 -104 66 -118 61 -28
185 3 206 52 15 36 27 272 23 459 -3 161 -2 178 12 175 9 -2 25 -19 35 -38 41
-78 97 -103 180 -80 53 15 74 43 71 96 -4 111 -73 324 -152 475 l-29 55 54 54
c30 29 59 66 66 82 8 20 15 26 22 19 14 -14 57 -14 77 -1 22 14 0 44 -34 48
-30 4 -30 3 -14 37 11 25 37 30 66 11 18 -11 44 13 40 37 -2 12 -15 25 -35 31
-44 15 -46 19 -39 70 5 32 13 47 27 51 27 9 24 44 -6 55 -14 5 -27 20 -30 35
-3 14 -7 36 -10 49 -9 44 -94 183 -140 227 -44 43 -45 45 -45 107 0 79 -16
147 -47 192 -12 19 -23 40 -23 48 0 23 -80 44 -125 31z m88 -106 c35 -55 51
-134 44 -214 -4 -43 -2 -69 4 -69 22 0 73 -48 114 -110 44 -66 85 -173 71
-187 -4 -5 -44 -10 -88 -13 -63 -4 -83 -9 -92 -22 -13 -22 4 -55 26 -49 7 2
48 6 91 9 l78 5 -3 -44 -3 -44 -105 0 -105 0 0 -25 c0 -24 3 -25 90 -35 69 -8
91 -14 93 -26 6 -32 -22 -41 -87 -29 -69 12 -81 9 -81 -24 0 -31 17 -44 65
-48 l40 -3 -45 -45 c-25 -25 -60 -53 -78 -62 -41 -22 -45 -58 -6 -58 21 0 29
-9 50 -55 14 -30 30 -55 35 -55 5 0 9 -7 9 -15 0 -9 9 -35 21 -58 25 -51 45
-110 54 -157 6 -34 17 -66 37 -103 11 -23 1 -76 -20 -100 -8 -9 -28 -17 -43
-17 -29 0 -58 30 -131 135 -39 56 -58 64 -93 41 -24 -16 -24 -17 -19 -138 10
-221 10 -242 3 -379 -6 -136 -13 -164 -52 -206 -25 -28 -41 -29 -77 -3 -20 14
-30 32 -35 62 -4 23 -25 70 -48 105 -62 98 -110 111 -277 77 -77 -15 -96 -29
-106 -74 -29 -131 -77 -184 -138 -155 -29 14 -36 25 -46 67 -14 56 -18 269
-10 539 4 146 2 179 -10 194 -8 9 -60 39 -116 65 -119 56 -257 144 -333 213
-59 53 -131 139 -131 155 0 6 -10 22 -22 36 -13 13 -32 35 -42 48 -25 29 -91
155 -99 189 -5 21 -15 27 -53 35 -59 11 -83 42 -91 115 -5 52 -4 56 22 73 23
15 31 16 50 6 17 -9 28 -9 45 0 18 10 21 17 15 49 -5 31 -2 40 19 60 55 52
100 6 93 -96 -4 -57 -3 -63 15 -63 11 0 28 4 38 10 29 15 50 2 50 -32 0 -46
-17 -68 -50 -68 -28 0 -30 -3 -30 -36 0 -25 7 -44 23 -59 33 -34 47 -53 47
-64 0 -28 164 -209 197 -217 13 -4 23 -10 23 -15 0 -4 32 -24 71 -44 61 -31
80 -35 128 -33 48 3 56 6 59 24 2 13 -8 33 -25 50 -40 41 -66 85 -56 93 4 5
39 16 76 26 59 15 68 20 65 39 -4 25 -45 33 -87 17 -14 -5 -40 -12 -56 -16
-29 -5 -31 -3 -41 35 -11 38 -10 41 12 46 13 4 40 3 60 0 46 -9 74 1 74 25 0
29 -44 42 -114 34 l-59 -7 5 51 c7 70 16 77 71 56 60 -23 91 -18 95 17 3 25
-1 27 -53 39 -31 7 -58 15 -60 19 -2 4 8 31 23 60 28 55 69 104 110 132 22 15
23 20 14 63 -11 51 8 148 47 238 16 38 25 47 45 47 25 0 96 -53 96 -72 0 -5 6
-15 13 -23 6 -7 21 -26 32 -41 53 -75 57 -77 163 -70 63 5 113 3 142 -4 110
-29 133 -24 143 28 7 33 81 151 110 174 38 30 74 23 100 -19z"/>
<path d="M1632 1965 c-29 -13 -52 -47 -52 -76 0 -16 48 -10 85 12 30 18 43 20
68 13 71 -21 141 17 87 46 -35 19 -150 22 -188 5z"/>
<path d="M2120 1973 c-29 -6 -60 -31 -60 -49 0 -18 36 -27 59 -15 24 13 108 4
138 -15 29 -18 48 -18 63 1 10 12 9 20 -4 39 -24 38 -109 55 -196 39z"/>
<path d="M1933 1753 c-7 -27 -58 -63 -97 -70 -28 -4 -39 0 -66 26 -18 17 -36
31 -41 31 -24 0 -39 -15 -39 -39 1 -20 11 -33 48 -56 26 -16 57 -31 70 -33 24
-3 106 23 129 41 13 9 37 7 108 -12 63 -17 126 -13 163 9 35 21 41 50 16 71
-14 11 -21 10 -47 -5 -17 -9 -53 -20 -80 -23 -47 -6 -51 -4 -81 30 -38 43 -75
57 -83 30z"/>
<path d="M240 2311 c0 -24 -8 -20 173 -80 124 -41 167 -45 167 -17 0 8 -12 18
-27 23 -16 6 -58 22 -96 37 -70 27 -130 44 -184 53 -29 4 -33 2 -33 -16z"/>
<path d="M3409 2266 c-2 -3 -40 -7 -84 -10 -83 -6 -194 -20 -280 -36 -27 -5
-56 -9 -63 -9 -8 -1 -12 -10 -10 -23 4 -27 3 -27 198 1 74 11 137 19 140 19
45 -4 140 5 154 15 25 18 11 47 -23 47 -15 0 -30 -2 -32 -4z"/>
<path d="M136 1734 c-11 -28 20 -44 88 -45 65 -1 70 -1 184 -13 73 -8 74 -8
70 15 -3 26 -30 33 -171 43 -37 3 -90 8 -116 12 -41 5 -49 3 -55 -12z"/>
<path d="M3027 1733 c-29 -7 -18 -48 13 -49 100 -6 170 -17 265 -39 202 -48
197 -47 206 -33 14 21 5 32 -32 45 -49 16 -251 53 -365 67 -17 2 -40 6 -50 9
-10 2 -27 2 -37 0z"/>
<path d="M595 1292 c-11 -2 -24 -8 -30 -12 -5 -4 -43 -17 -82 -29 -40 -13 -75
-26 -78 -31 -3 -4 -16 -11 -30 -14 -14 -4 -49 -17 -78 -30 -28 -14 -65 -28
-82 -33 -22 -7 -31 -17 -33 -36 -2 -15 1 -27 5 -27 11 0 100 35 198 78 99 42
187 76 210 80 11 1 27 9 35 17 12 13 12 17 0 28 -8 8 -24 12 -35 9z"/>
<path d="M2962 1258 c4 -29 55 -54 178 -85 103 -26 100 -25 180 -47 47 -13
112 -36 170 -60 25 -10 47 10 34 31 -12 20 -165 74 -279 100 -38 8 -95 21
-125 27 -30 7 -75 22 -99 34 -56 28 -63 27 -59 0z"/>
<path d="M2939 848 c-6 -11 -7 -24 -2 -28 4 -5 89 -50 188 -99 99 -50 192 -98
206 -107 29 -19 59 -13 59 10 0 17 -60 52 -278 161 -154 78 -163 81 -173 63z"/>
<path d="M695 847 c-139 -79 -355 -248 -355 -277 0 -32 28 -24 89 28 64 52
161 123 263 193 52 35 65 48 56 57 -14 14 -26 14 -53 -1z"/>
<path d="M1029 547 c-8 -8 -30 -34 -49 -58 -19 -24 -47 -55 -61 -69 -14 -14
-38 -45 -54 -70 -15 -25 -31 -47 -35 -50 -3 -3 -25 -29 -48 -58 -46 -58 -54
-92 -23 -92 12 0 40 29 78 81 67 94 141 186 198 248 22 23 40 50 40 59 0 22
-29 27 -46 9z"/>
<path d="M2733 513 c-30 -11 -9 -48 70 -126 46 -45 98 -103 116 -129 30 -45
62 -61 75 -39 12 18 -47 100 -141 199 -54 56 -100 102 -103 101 -3 0 -11 -3
-17 -6z"/>
</g>
</svg>
